<svg width="100" height="84" viewBox="0 0 100 84" fill="none" xmlns="http://www.w3.org/2000/svg">
<path d="M24.322 35.9412L51.1921 9.07108C55.0973 5.16583 61.429 5.16583 65.3343 9.07107L92.2044 35.9412L93.2165 36.9533C96.0037 39.7405 96.0037 44.2595 93.2165 47.0467V47.0467L65.3342 74.9289C61.429 78.8342 55.0974 78.8342 51.1921 74.9289L24.322 48.0588" stroke="black" stroke-width="2"/>
<path d="M75.9412 35.9412L49.0711 9.07108C45.1658 5.16583 38.8342 5.16583 34.9289 9.07107L8.05883 35.9412L7.04668 36.9533C4.25948 39.7405 4.25948 44.2595 7.04668 47.0467V47.0467L34.9289 74.9289C38.8342 78.8342 45.1658 78.8342 49.0711 74.9289L75.9412 48.0588" stroke="black" stroke-width="2"/>
<path d="M20.7749 44.4L20.064 42.5836H17.7749L17.0718 44.4H16.3999L18.6577 38.6656H19.2163L21.4624 44.4H20.7749ZM19.8569 41.986L19.1929 40.2164C19.1069 39.9925 19.0184 39.7177 18.9272 39.3922C18.87 39.6422 18.7879 39.917 18.6812 40.2164L18.0093 41.986H19.8569Z" fill="black"/>
<path d="M24.7593 41.4078H26.7007V44.1852C26.3986 44.2815 26.0913 44.3545 25.7788 44.4039C25.4663 44.4534 25.1043 44.4781 24.6929 44.4781C23.8283 44.4781 23.1551 44.2216 22.6733 43.7086C22.1916 43.193 21.9507 42.4716 21.9507 41.5446C21.9507 40.9508 22.0692 40.4313 22.3062 39.986C22.5457 39.538 22.8895 39.1969 23.3374 38.9625C23.7853 38.7255 24.3101 38.6071 24.9116 38.6071C25.521 38.6071 26.0887 38.719 26.6147 38.943L26.3569 39.5289C25.8413 39.3102 25.3452 39.2008 24.8687 39.2008C24.1733 39.2008 23.6304 39.4078 23.2397 39.8219C22.8491 40.236 22.6538 40.8102 22.6538 41.5446C22.6538 42.3154 22.8413 42.9 23.2163 43.2985C23.5939 43.6969 24.1473 43.8961 24.8765 43.8961C25.2723 43.8961 25.659 43.8505 26.0366 43.7594V42.0016H24.7593V41.4078Z" fill="black"/>
<path d="M31.2593 44.4H28.0757V38.6891H31.2593V39.2789H28.7397V41.1188H31.1069V41.7047H28.7397V43.8063H31.2593V44.4Z" fill="black"/>
<path d="M36.9897 44.4H36.2319L33.1108 39.6071H33.0796C33.1213 40.1696 33.1421 40.6852 33.1421 41.1539V44.4H32.5288V38.6891H33.2788L36.3921 43.4625H36.4233C36.4181 43.3922 36.4064 43.167 36.3882 42.7867C36.37 42.4039 36.3634 42.1305 36.3687 41.9664V38.6891H36.9897V44.4Z" fill="black"/>
<path d="M41.0054 39.2008C40.3778 39.2008 39.8817 39.4104 39.5171 39.8297C39.1551 40.2464 38.9741 40.818 38.9741 41.5446C38.9741 42.292 39.1486 42.8701 39.4976 43.2789C39.8491 43.6852 40.3491 43.8883 40.9976 43.8883C41.396 43.8883 41.8504 43.8167 42.3608 43.6735V44.2555C41.965 44.4039 41.4767 44.4781 40.896 44.4781C40.0549 44.4781 39.4051 44.2229 38.9468 43.7125C38.491 43.2021 38.2632 42.4768 38.2632 41.5367C38.2632 40.9482 38.3726 40.4326 38.5913 39.9899C38.8127 39.5472 39.1304 39.206 39.5444 38.9664C39.9611 38.7268 40.4507 38.6071 41.0132 38.6071C41.6121 38.6071 42.1356 38.7164 42.5835 38.9352L42.3022 39.5055C41.87 39.3024 41.4377 39.2008 41.0054 39.2008Z" fill="black"/>
<path d="M45.0601 41.5446L46.5835 38.6891H47.3022L45.396 42.1852V44.4H44.7241V42.2164L42.8218 38.6891H43.5483L45.0601 41.5446Z" fill="black"/>
<path d="M53.3921 42.8805C53.3921 43.3831 53.2098 43.775 52.8452 44.0563C52.4806 44.3375 51.9858 44.4781 51.3608 44.4781C50.6838 44.4781 50.1629 44.3909 49.7983 44.2164V43.5758C50.0327 43.6748 50.2879 43.7529 50.564 43.8102C50.84 43.8675 51.1134 43.8961 51.3843 43.8961C51.827 43.8961 52.1603 43.8128 52.3843 43.6461C52.6082 43.4768 52.7202 43.2425 52.7202 42.943C52.7202 42.7451 52.6799 42.5836 52.5991 42.4586C52.521 42.331 52.3882 42.2138 52.2007 42.1071C52.0158 42.0003 51.7332 41.8792 51.353 41.7438C50.8218 41.5537 50.4416 41.3284 50.2124 41.068C49.9858 40.8076 49.8726 40.4677 49.8726 40.0485C49.8726 39.6084 50.0379 39.2581 50.3687 38.9977C50.6994 38.7373 51.1369 38.6071 51.6812 38.6071C52.2489 38.6071 52.771 38.7112 53.2476 38.9196L53.0405 39.4977C52.5692 39.2998 52.1108 39.2008 51.6655 39.2008C51.314 39.2008 51.0392 39.2763 50.8413 39.4274C50.6434 39.5784 50.5444 39.788 50.5444 40.0563C50.5444 40.2542 50.5809 40.417 50.6538 40.5446C50.7267 40.6696 50.8491 40.7854 51.021 40.8922C51.1955 40.9964 51.4611 41.1123 51.8179 41.2399C52.4168 41.4534 52.8283 41.6826 53.0522 41.9274C53.2788 42.1722 53.3921 42.4899 53.3921 42.8805Z" fill="black"/>
<path d="M57.7437 44.4H54.5601V38.6891H57.7437V39.2789H55.2241V41.1188H57.5913V41.7047H55.2241V43.8063H57.7437V44.4Z" fill="black"/>
<path d="M59.6772 42.025V44.4H59.0132V38.6891H60.5796C61.2801 38.6891 61.797 38.8232 62.1304 39.0914C62.4663 39.3597 62.6343 39.7633 62.6343 40.3024C62.6343 41.0576 62.2515 41.568 61.4858 41.8336L63.0366 44.4H62.2515L60.8687 42.025H59.6772ZM59.6772 41.4547H60.5874C61.0562 41.4547 61.3999 41.3623 61.6187 41.1774C61.8374 40.9899 61.9468 40.7099 61.9468 40.3375C61.9468 39.9599 61.8348 39.6878 61.6108 39.5211C61.3895 39.3545 61.0327 39.2711 60.5405 39.2711H59.6772V41.4547Z" fill="black"/>
<path d="M67.2202 38.6891H67.9351L65.8765 44.4H65.2202L63.1733 38.6891H63.8765L65.189 42.3844C65.34 42.8089 65.4598 43.2216 65.5483 43.6227C65.6421 43.2008 65.7645 42.7802 65.9155 42.361L67.2202 38.6891Z" fill="black"/>
<path d="M68.7241 44.4V38.6891H69.3882V44.4H68.7241Z" fill="black"/>
<path d="M73.4038 39.2008C72.7762 39.2008 72.2801 39.4104 71.9155 39.8297C71.5536 40.2464 71.3726 40.818 71.3726 41.5446C71.3726 42.292 71.547 42.8701 71.896 43.2789C72.2476 43.6852 72.7476 43.8883 73.396 43.8883C73.7944 43.8883 74.2489 43.8167 74.7593 43.6735V44.2555C74.3634 44.4039 73.8752 44.4781 73.2944 44.4781C72.4533 44.4781 71.8036 44.2229 71.3452 43.7125C70.8895 43.2021 70.6616 42.4768 70.6616 41.5367C70.6616 40.9482 70.771 40.4326 70.9897 39.9899C71.2111 39.5472 71.5288 39.206 71.9429 38.9664C72.3595 38.7268 72.8491 38.6071 73.4116 38.6071C74.0106 38.6071 74.534 38.7164 74.9819 38.9352L74.7007 39.5055C74.2684 39.3024 73.8361 39.2008 73.4038 39.2008Z" fill="black"/>
<path d="M79.189 44.4H76.0054V38.6891H79.189V39.2789H76.6694V41.1188H79.0366V41.7047H76.6694V43.8063H79.189V44.4Z" fill="black"/>
<path d="M83.6812 42.8805C83.6812 43.3831 83.4989 43.775 83.1343 44.0563C82.7697 44.3375 82.2749 44.4781 81.6499 44.4781C80.9728 44.4781 80.452 44.3909 80.0874 44.2164V43.5758C80.3218 43.6748 80.577 43.7529 80.853 43.8102C81.1291 43.8675 81.4025 43.8961 81.6733 43.8961C82.1161 43.8961 82.4494 43.8128 82.6733 43.6461C82.8973 43.4768 83.0093 43.2425 83.0093 42.943C83.0093 42.7451 82.9689 42.5836 82.8882 42.4586C82.8101 42.331 82.6772 42.2138 82.4897 42.1071C82.3048 42.0003 82.0223 41.8792 81.6421 41.7438C81.1108 41.5537 80.7306 41.3284 80.5015 41.068C80.2749 40.8076 80.1616 40.4677 80.1616 40.0485C80.1616 39.6084 80.327 39.2581 80.6577 38.9977C80.9884 38.7373 81.4259 38.6071 81.9702 38.6071C82.5379 38.6071 83.0601 38.7112 83.5366 38.9196L83.3296 39.4977C82.8582 39.2998 82.3999 39.2008 81.9546 39.2008C81.603 39.2008 81.3283 39.2763 81.1304 39.4274C80.9325 39.5784 80.8335 39.788 80.8335 40.0563C80.8335 40.2542 80.87 40.417 80.9429 40.5446C81.0158 40.6696 81.1382 40.7854 81.3101 40.8922C81.4845 40.9964 81.7502 41.1123 82.1069 41.2399C82.7059 41.4534 83.1173 41.6826 83.3413 41.9274C83.5679 42.1722 83.6812 42.4899 83.6812 42.8805Z" fill="black"/>
<path d="M44.3705 26.9203H46.0832L43.3637 34.9203H41.5141L38.8 26.9203H40.5128L42.0176 31.6809C42.1015 31.9618 42.1872 32.2901 42.2747 32.6658C42.3659 33.0379 42.4225 33.2969 42.4444 33.4429C42.4845 33.1072 42.6213 32.5199 42.8548 31.6809L44.3705 26.9203Z" fill="black"/>
<path d="M53.5306 34.9203H51.6044L49.5087 31.5496L48.7918 32.0639V34.9203H47.0955V26.9203H48.7918V30.581L49.4594 29.6399L51.6263 26.9203H53.5087L50.718 30.4606L53.5306 34.9203Z" fill="black"/>
<path d="M59.101 26.9203H60.8137L58.0942 34.9203H56.2446L53.5306 26.9203H55.2433L56.7481 31.6809C56.832 31.9618 56.9177 32.2901 57.0052 32.6658C57.0964 33.0379 57.153 33.2969 57.1749 33.4429C57.215 33.1072 57.3518 32.5199 57.5853 31.6809L59.101 26.9203Z" fill="black"/>
</svg>
